<svg xmlns="http://www.w3.org/2000/svg" width="26" height="26" viewBox="0 0 26 26" fill="none">
    <path
        d="M13.3 25.6377C15.0009 25.6377 16.6 25.3122 18.0974 24.6611C19.6029 24.0101 20.9294 23.1108 22.0769 21.9634C23.2244 20.8159 24.1236 19.4935 24.7747 17.9961C25.4257 16.4906 25.7512 14.8874 25.7512 13.1865C25.7512 11.4857 25.4257 9.88656 24.7747 8.38916C24.1236 6.88363 23.2244 5.55713 22.0769 4.40967C20.9294 3.26221 19.6029 2.36296 18.0974 1.71191C16.5919 1.06087 14.9887 0.735352 13.2878 0.735352C11.587 0.735352 9.98381 1.06087 8.47827 1.71191C6.98088 2.36296 5.65845 3.26221 4.51099 4.40967C3.37166 5.55713 2.47648 6.88363 1.82544 8.38916C1.1744 9.88656 0.848877 11.4857 0.848877 13.1865C0.848877 14.8874 1.1744 16.4906 1.82544 17.9961C2.47648 19.4935 3.37573 20.8159 4.52319 21.9634C5.67065 23.1108 6.99308 24.0101 8.49048 24.6611C9.99601 25.3122 11.5992 25.6377 13.3 25.6377ZM13.3 23.5625C11.8596 23.5625 10.5128 23.2939 9.25952 22.7568C8.00627 22.2197 6.90356 21.4792 5.95142 20.5352C5.00741 19.583 4.26685 18.4803 3.72974 17.2271C3.20076 15.9738 2.93628 14.627 2.93628 13.1865C2.93628 11.7461 3.20076 10.3993 3.72974 9.146C4.26685 7.89274 5.00741 6.79004 5.95142 5.83789C6.89543 4.88574 7.99406 4.14518 9.24731 3.61621C10.5006 3.0791 11.8474 2.81055 13.2878 2.81055C14.7283 2.81055 16.0751 3.0791 17.3284 3.61621C18.5816 4.14518 19.6843 4.88574 20.6365 5.83789C21.5886 6.79004 22.3333 7.89274 22.8704 9.146C23.4075 10.3993 23.676 11.7461 23.676 13.1865C23.676 14.627 23.4075 15.9738 22.8704 17.2271C22.3414 18.4803 21.6008 19.583 20.6487 20.5352C19.7047 21.4792 18.602 22.2197 17.3406 22.7568C16.0873 23.2939 14.7405 23.5625 13.3 23.5625ZM9.78442 19.4731L13.2878 16.9097L16.7913 19.4731C17.0354 19.6522 17.2633 19.7214 17.4749 19.6807C17.6946 19.64 17.8573 19.522 17.9631 19.3267C18.0689 19.1313 18.0771 18.8953 17.9875 18.6187L16.5959 14.4805L20.136 11.9536C20.3557 11.799 20.4819 11.6118 20.5144 11.3921C20.547 11.1642 20.49 10.9648 20.3435 10.7939C20.2052 10.623 19.9854 10.5417 19.6843 10.5498L15.3386 10.5864L14.0081 6.42383C13.9267 6.15527 13.7843 5.97624 13.5808 5.88672C13.3855 5.7972 13.1902 5.7972 12.9949 5.88672C12.7996 5.97624 12.6571 6.15527 12.5676 6.42383L11.2493 10.5864L6.90356 10.5498C6.60246 10.5417 6.37866 10.623 6.23218 10.7939C6.09383 10.9648 6.04093 11.1642 6.07349 11.3921C6.10604 11.6118 6.23218 11.8031 6.4519 11.9658L9.99194 14.4805L8.60034 18.6187C8.51082 18.8953 8.51896 19.1313 8.62476 19.3267C8.73055 19.522 8.88924 19.64 9.10083 19.6807C9.32056 19.7214 9.54842 19.6522 9.78442 19.4731Z"
        fill="#4A4949"
    />
</svg>
