<svg xmlns="http://www.w3.org/2000/svg" width="25" height="26" viewBox="0 0 25 26" fill="none">
    <path
        d="M12.5 25.6377C14.2008 25.6377 15.8 25.3122 17.2974 24.6611C18.8029 24.0101 20.1294 23.1108 21.2769 21.9634C22.4243 20.8159 23.3236 19.4935 23.9746 17.9961C24.6257 16.4906 24.9512 14.8874 24.9512 13.1865C24.9512 11.4857 24.6257 9.88656 23.9746 8.38916C23.3236 6.88363 22.4243 5.55713 21.2769 4.40967C20.1294 3.26221 18.8029 2.36296 17.2974 1.71191C15.7918 1.06087 14.1886 0.735352 12.4878 0.735352C10.7869 0.735352 9.18376 1.06087 7.67822 1.71191C6.18083 2.36296 4.8584 3.26221 3.71094 4.40967C2.57161 5.55713 1.67643 6.88363 1.02539 8.38916C0.374349 9.88656 0.0488281 11.4857 0.0488281 13.1865C0.0488281 14.8874 0.374349 16.4906 1.02539 17.9961C1.67643 19.4935 2.57568 20.8159 3.72314 21.9634C4.87061 23.1108 6.19303 24.0101 7.69043 24.6611C9.19596 25.3122 10.7992 25.6377 12.5 25.6377ZM12.5 23.5625C11.0596 23.5625 9.71273 23.2939 8.45947 22.7568C7.20622 22.2197 6.10352 21.4792 5.15137 20.5352C4.20736 19.583 3.4668 18.4803 2.92969 17.2271C2.40072 15.9738 2.13623 14.627 2.13623 13.1865C2.13623 11.7461 2.40072 10.3993 2.92969 9.146C3.4668 7.89274 4.20736 6.79004 5.15137 5.83789C6.09538 4.88574 7.19401 4.14518 8.44727 3.61621C9.70052 3.0791 11.0474 2.81055 12.4878 2.81055C13.9282 2.81055 15.2751 3.0791 16.5283 3.61621C17.7816 4.14518 18.8843 4.88574 19.8364 5.83789C20.7886 6.79004 21.5332 7.89274 22.0703 9.146C22.6074 10.3993 22.876 11.7461 22.876 13.1865C22.876 14.627 22.6074 15.9738 22.0703 17.2271C21.5413 18.4803 20.8008 19.583 19.8486 20.5352C18.9046 21.4792 17.8019 22.2197 16.5405 22.7568C15.2873 23.2939 13.9404 23.5625 12.5 23.5625ZM12.4878 20.1567C12.6506 20.1567 12.7848 20.1038 12.8906 19.998C13.0046 19.8923 13.0615 19.7539 13.0615 19.583V18.7285C14.0137 18.6309 14.8112 18.3175 15.4541 17.7886C16.1051 17.2515 16.4307 16.5231 16.4307 15.6035C16.4307 14.7734 16.1621 14.1061 15.625 13.6016C15.0879 13.097 14.2904 12.7511 13.2324 12.564L13.0615 12.5273V9.12158C13.501 9.20296 13.8672 9.37386 14.1602 9.63428C14.4613 9.88656 14.6729 10.2161 14.7949 10.623C14.9333 11.0218 15.1815 11.2212 15.5396 11.2212C15.7511 11.2212 15.922 11.1561 16.0522 11.0259C16.1906 10.8875 16.2598 10.7126 16.2598 10.501C16.2598 10.4359 16.2516 10.3748 16.2354 10.3179C16.2272 10.2528 16.215 10.1877 16.1987 10.1226C16.036 9.46338 15.6657 8.9222 15.0879 8.49902C14.5182 8.06771 13.8428 7.80729 13.0615 7.71777V6.87549C13.0615 6.70459 13.0046 6.56624 12.8906 6.46045C12.7848 6.35465 12.6506 6.30176 12.4878 6.30176C12.1053 6.30176 11.9141 6.493 11.9141 6.87549V7.71777C10.9863 7.82357 10.2254 8.14909 9.63135 8.69434C9.03727 9.23145 8.74023 9.91504 8.74023 10.7451C8.74023 11.5182 9.00065 12.1449 9.52148 12.625C10.0423 13.1051 10.8114 13.4632 11.8286 13.6992L11.9141 13.7236V17.3369C11.3607 17.2555 10.9212 17.0724 10.5957 16.7876C10.2783 16.5028 10.0708 16.1569 9.97314 15.75C9.8999 15.5465 9.79818 15.396 9.66797 15.2983C9.5459 15.1925 9.39535 15.1396 9.21631 15.1396C9.01286 15.1396 8.84196 15.2088 8.70361 15.3472C8.5734 15.4774 8.5083 15.6483 8.5083 15.8599C8.5083 15.925 8.51237 15.9901 8.52051 16.0552C8.53678 16.1121 8.55306 16.1732 8.56934 16.2383C8.74023 16.9463 9.13493 17.516 9.75342 17.9473C10.3719 18.3704 11.0921 18.6227 11.9141 18.7041V19.583C11.9141 19.7539 11.967 19.8923 12.0728 19.998C12.1867 20.1038 12.325 20.1567 12.4878 20.1567ZM11.9141 12.2222L11.8286 12.1978C11.2834 12.035 10.8805 11.8315 10.6201 11.5874C10.3678 11.3351 10.2417 11.0299 10.2417 10.6719C10.2417 10.2975 10.3882 9.96794 10.6812 9.68311C10.9823 9.39827 11.3932 9.2111 11.9141 9.12158V12.2222ZM13.0615 14.0166L13.3301 14.0776C13.916 14.2404 14.327 14.452 14.563 14.7124C14.799 14.9728 14.917 15.2983 14.917 15.689C14.917 16.1203 14.7624 16.4865 14.4531 16.7876C14.152 17.0806 13.6882 17.2637 13.0615 17.3369V14.0166Z"
        fill="#4A4949"
    />
</svg>
