<svg xmlns="http://www.w3.org/2000/svg" width="26" height="26" viewBox="0 0 26 26" fill="none">
    <path
        d="M12.9 25.6377C14.6009 25.6377 16.2 25.3122 17.6974 24.6611C19.2029 24.0101 20.5294 23.1108 21.6769 21.9634C22.8243 20.8159 23.7236 19.4935 24.3746 17.9961C25.0257 16.4906 25.3512 14.8874 25.3512 13.1865C25.3512 11.4857 25.0257 9.88656 24.3746 8.38916C23.7236 6.88363 22.8243 5.55713 21.6769 4.40967C20.5294 3.26221 19.2029 2.36296 17.6974 1.71191C16.1919 1.06087 14.5887 0.735352 12.8878 0.735352C11.187 0.735352 9.58378 1.06087 8.07825 1.71191C6.58085 2.36296 5.25842 3.26221 4.11096 4.40967C2.97164 5.55713 2.07646 6.88363 1.42542 8.38916C0.774373 9.88656 0.448853 11.4857 0.448853 13.1865C0.448853 14.8874 0.774373 16.4906 1.42542 17.9961C2.07646 19.4935 2.97571 20.8159 4.12317 21.9634C5.27063 23.1108 6.59306 24.0101 8.09045 24.6611C9.59599 25.3122 11.1992 25.6377 12.9 25.6377ZM12.9 23.5625C11.4596 23.5625 10.1128 23.2939 8.8595 22.7568C7.60624 22.2197 6.50354 21.4792 5.55139 20.5352C4.60738 19.583 3.86682 18.4803 3.32971 17.2271C2.80074 15.9738 2.53625 14.627 2.53625 13.1865C2.53625 11.7461 2.80074 10.3993 3.32971 9.146C3.86682 7.89274 4.60738 6.79004 5.55139 5.83789C6.4954 4.88574 7.59403 4.14518 8.84729 3.61621C10.1005 3.0791 11.4474 2.81055 12.8878 2.81055C14.3282 2.81055 15.6751 3.0791 16.9283 3.61621C18.1816 4.14518 19.2843 4.88574 20.2365 5.83789C21.1886 6.79004 21.9332 7.89274 22.4703 9.146C23.0074 10.3993 23.276 11.7461 23.276 13.1865C23.276 14.627 23.0074 15.9738 22.4703 17.2271C21.9414 18.4803 21.2008 19.583 20.2487 20.5352C19.3046 21.4792 18.2019 22.2197 16.9406 22.7568C15.6873 23.2939 14.3405 23.5625 12.9 23.5625ZM16.7086 16.2017C16.9772 16.2017 17.1928 16.1121 17.3556 15.9331C17.5184 15.7459 17.5997 15.5099 17.5997 15.2251V9.47559C17.5997 9.10938 17.5061 8.84896 17.319 8.69434C17.1399 8.53971 16.8958 8.4624 16.5865 8.4624H10.7882C10.5034 8.4624 10.2755 8.54378 10.1046 8.70654C9.93372 8.8693 9.84827 9.08496 9.84827 9.35352C9.84827 9.63021 9.93372 9.84993 10.1046 10.0127C10.2837 10.1755 10.5197 10.2568 10.8126 10.2568H13.0343L14.8409 10.0615L12.9489 11.8315L8.44446 16.3359C8.24915 16.5312 8.15149 16.7469 8.15149 16.9829C8.15149 17.2596 8.23287 17.4834 8.39563 17.6543C8.55839 17.8171 8.77405 17.8984 9.0426 17.8984C9.3193 17.8984 9.55123 17.8049 9.7384 17.6177L14.2428 13.1133L15.9884 11.2456L15.8053 13.1377V15.2495C15.8053 15.5425 15.8867 15.7744 16.0494 15.9453C16.2203 16.1162 16.4401 16.2017 16.7086 16.2017Z"
        fill="#4A4949"
    />
</svg>
