<svg xmlns="http://www.w3.org/2000/svg" width="26" height="26" viewBox="0 0 26 26" fill="none">
    <path
        d="M13 24.9541C13.8464 24.9541 14.6398 24.6611 15.3804 24.0752C16.1291 23.4893 16.7842 22.6673 17.3457 21.6094C17.9154 20.5514 18.3589 19.3104 18.6763 17.8862C19.0018 16.4539 19.1646 14.8955 19.1646 13.2109C19.1646 11.5264 19.0059 9.96794 18.6885 8.53564C18.3711 7.09521 17.9276 5.84603 17.3579 4.78809C16.7964 3.72201 16.1413 2.896 15.3926 2.31006C14.652 1.72412 13.8545 1.43115 13 1.43115C12.1455 1.43115 11.3439 1.72412 10.5952 2.31006C9.85465 2.896 9.20361 3.72201 8.64209 4.78809C8.08057 5.84603 7.63704 7.09521 7.31152 8.53564C6.99414 9.96794 6.83545 11.5264 6.83545 13.2109C6.83545 14.8955 6.99414 16.4539 7.31152 17.8862C7.63704 19.3104 8.08057 20.5514 8.64209 21.6094C9.21175 22.6673 9.86686 23.4893 10.6074 24.0752C11.3561 24.6611 12.1536 24.9541 13 24.9541ZM13 2.9082C13.5941 2.9082 14.1637 3.1849 14.709 3.73828C15.2542 4.28353 15.7384 5.03223 16.1616 5.98438C16.5848 6.93652 16.9185 8.03516 17.1626 9.28027C17.4067 10.5173 17.5288 11.8275 17.5288 13.2109C17.5288 14.5781 17.4067 15.8761 17.1626 17.105C16.9185 18.3338 16.5848 19.4284 16.1616 20.3887C15.7384 21.3408 15.2542 22.0895 14.709 22.6348C14.1637 23.1882 13.5941 23.4648 13 23.4648C12.4059 23.4648 11.8363 23.1882 11.291 22.6348C10.7458 22.0895 10.2616 21.3408 9.83838 20.3887C9.4152 19.4284 9.08154 18.3338 8.8374 17.105C8.59326 15.8761 8.47119 14.5781 8.47119 13.2109C8.47119 11.8275 8.59326 10.5173 8.8374 9.28027C9.08154 8.03516 9.4152 6.93652 9.83838 5.98438C10.2616 5.03223 10.7458 4.28353 11.291 3.73828C11.8363 3.1849 12.4059 2.9082 13 2.9082ZM12.2065 1.60205V24.7222H13.8057V1.60205H12.2065ZM13 17.7764C11.7467 17.7764 10.5586 17.8822 9.43555 18.0938C8.3125 18.2972 7.29932 18.5942 6.396 18.9849C5.50081 19.3674 4.76839 19.819 4.19873 20.3398L5.43164 21.353C5.96875 20.9299 6.61165 20.5718 7.36035 20.2788C8.11719 19.9777 8.96761 19.7539 9.91162 19.6074C10.8638 19.4528 11.8932 19.3755 13 19.3755C14.1068 19.3755 15.1322 19.4528 16.0762 19.6074C17.0283 19.7539 17.8787 19.9777 18.6274 20.2788C19.3843 20.5718 20.0312 20.9299 20.5684 21.353L21.8013 20.3398C21.2316 19.819 20.4951 19.3674 19.5918 18.9849C18.6966 18.5942 17.6875 18.2972 16.5645 18.0938C15.4414 17.8822 14.2533 17.7764 13 17.7764ZM24.2671 12.3809H1.73291V13.98H24.2671V12.3809ZM13 8.65771C14.2533 8.65771 15.4414 8.55599 16.5645 8.35254C17.6875 8.14095 18.6966 7.84391 19.5918 7.46143C20.4951 7.0708 21.2316 6.61507 21.8013 6.09424L20.5684 5.08105C20.0312 5.50423 19.3843 5.86637 18.6274 6.16748C17.8787 6.46045 17.0283 6.68424 16.0762 6.83887C15.1322 6.98535 14.1068 7.05859 13 7.05859C11.8932 7.05859 10.8638 6.98535 9.91162 6.83887C8.96761 6.68424 8.11719 6.46045 7.36035 6.16748C6.61165 5.86637 5.96875 5.50423 5.43164 5.08105L4.19873 6.09424C4.76839 6.61507 5.50081 7.0708 6.396 7.46143C7.29932 7.84391 8.3125 8.14095 9.43555 8.35254C10.5586 8.55599 11.7467 8.65771 13 8.65771ZM13 25.6377C14.7008 25.6377 16.3 25.3122 17.7974 24.6611C19.3029 24.0101 20.6294 23.1108 21.7769 21.9634C22.9243 20.8159 23.8236 19.4935 24.4746 17.9961C25.1257 16.4906 25.4512 14.8874 25.4512 13.1865C25.4512 11.4857 25.1257 9.88656 24.4746 8.38916C23.8236 6.88363 22.9243 5.55713 21.7769 4.40967C20.6294 3.26221 19.3029 2.36296 17.7974 1.71191C16.2918 1.06087 14.6886 0.735352 12.9878 0.735352C11.2869 0.735352 9.68376 1.06087 8.17822 1.71191C6.68083 2.36296 5.3584 3.26221 4.21094 4.40967C3.07161 5.55713 2.17643 6.88363 1.52539 8.38916C0.874349 9.88656 0.548828 11.4857 0.548828 13.1865C0.548828 14.8874 0.874349 16.4906 1.52539 17.9961C2.17643 19.4935 3.07568 20.8159 4.22314 21.9634C5.37061 23.1108 6.69303 24.0101 8.19043 24.6611C9.69596 25.3122 11.2992 25.6377 13 25.6377ZM13 23.9775C11.527 23.9775 10.1395 23.6927 8.8374 23.123C7.53532 22.5615 6.38786 21.7843 5.39502 20.7915C4.40218 19.7987 3.62093 18.6512 3.05127 17.3491C2.48975 16.047 2.20898 14.6595 2.20898 13.1865C2.20898 11.7135 2.48975 10.326 3.05127 9.02393C3.62093 7.72184 4.39811 6.57438 5.38281 5.58154C6.37565 4.5887 7.52311 3.81152 8.8252 3.25C10.1273 2.68034 11.5148 2.39551 12.9878 2.39551C14.4608 2.39551 15.8483 2.68034 17.1504 3.25C18.4525 3.81152 19.5999 4.5887 20.5928 5.58154C21.5938 6.57438 22.375 7.72184 22.9365 9.02393C23.5062 10.326 23.791 11.7135 23.791 13.1865C23.791 14.6595 23.5062 16.047 22.9365 17.3491C22.375 18.6512 21.5978 19.7987 20.605 20.7915C19.6121 21.7843 18.4647 22.5615 17.1626 23.123C15.8605 23.6927 14.473 23.9775 13 23.9775Z"
        fill="#4A4949"
    />
</svg>
