<svg xmlns="http://www.w3.org/2000/svg" width="23" height="23" viewBox="0 0 23 23" fill="none">
    <path
        d="M0.939734 7.47471C1.57406 7.47471 1.89122 7.15347 1.89122 6.51099V3.73735C1.89122 3.12621 2.04784 2.66786 2.36108 2.36229C2.67433 2.04888 3.12462 1.89218 3.71195 1.89218H6.55465C7.1968 1.89218 7.51788 1.57486 7.51788 0.940215C7.51788 0.313405 7.1968 0 6.55465 0H3.68846C2.45897 0 1.5349 0.30557 0.916241 0.916709C0.305414 1.52001 0 2.42497 0 3.63158V6.51099C0 7.15347 0.313245 7.47471 0.939734 7.47471ZM22.0485 7.47471C22.6828 7.47471 23 7.15347 23 6.51099V3.63158C23 2.42497 22.6907 1.52001 22.072 0.916709C21.4612 0.30557 20.541 0 19.3115 0H16.4336C15.7993 0 15.4821 0.313405 15.4821 0.940215C15.4821 1.57486 15.7993 1.89218 16.4336 1.89218H19.2763C19.8558 1.89218 20.3061 2.04888 20.6272 2.36229C20.9482 2.66786 21.1088 3.12621 21.1088 3.73735V6.51099C21.1088 7.15347 21.422 7.47471 22.0485 7.47471ZM3.68846 23H6.55465C7.1968 23 7.51788 22.6866 7.51788 22.0598C7.51788 21.4251 7.1968 21.1078 6.55465 21.1078H3.71195C3.12462 21.1078 2.67433 20.9511 2.36108 20.6377C2.04784 20.3321 1.89122 19.8738 1.89122 19.2626V16.489C1.89122 15.8465 1.57406 15.5253 0.939734 15.5253C0.313245 15.5253 0 15.8465 0 16.489V19.3567C0 20.5711 0.305414 21.48 0.916241 22.0833C1.5349 22.6944 2.45897 23 3.68846 23ZM16.4336 23H19.3115C20.541 23 21.4612 22.6944 22.072 22.0833C22.6907 21.48 23 20.5711 23 19.3567V16.489C23 15.8465 22.6828 15.5253 22.0485 15.5253C21.422 15.5253 21.1088 15.8465 21.1088 16.489V19.2626C21.1088 19.8738 20.9482 20.3321 20.6272 20.6377C20.3061 20.9511 19.8558 21.1078 19.2763 21.1078H16.4336C15.7993 21.1078 15.4821 21.4251 15.4821 22.0598C15.4821 22.6866 15.7993 23 16.4336 23Z"
        fill="#4A4949"
    />
    <path
        d="M8 11.9554C8 12.0679 8.03785 12.1629 8.11356 12.2406C8.18926 12.3143 8.28767 12.3511 8.4088 12.3511H11.6167L9.92477 17.0657C9.86799 17.2171 9.85664 17.347 9.8907 17.4557C9.92855 17.5643 9.99101 17.6419 10.0781 17.6885C10.1689 17.739 10.2692 17.7487 10.379 17.7176C10.4925 17.6905 10.5966 17.6167 10.6913 17.4964L15.8524 10.8844C15.9508 10.7563 16 10.6322 16 10.5119C16 10.3993 15.9621 10.3062 15.8864 10.2325C15.8107 10.1549 15.7123 10.1161 15.5912 10.1161H12.3833L14.0752 5.4015C14.132 5.25405 14.1415 5.126 14.1036 5.01735C14.0696 4.9087 14.0071 4.8311 13.9163 4.78453C13.8292 4.73409 13.7289 4.72245 13.6153 4.74961C13.5056 4.77677 13.4034 4.85244 13.3087 4.97661L8.14762 11.5828C8.04921 11.7148 8 11.8389 8 11.9554Z"
        fill="#4A4949"
    />
</svg>
