<svg xmlns="http://www.w3.org/2000/svg" width="26" height="26" viewBox="0 0 30 26" fill="none">
    <path
        d="M26.6296 15.3166C26.4236 15.5612 26.0764 15.5612 25.8704 15.3166L22.6436 11.4871C22.3291 11.1139 22.5652 10.5 23.0232 10.5L29.4768 10.5C29.9348 10.5 30.1709 11.1139 29.8564 11.4871L26.6296 15.3166Z"
        fill="#4A4949"
    />
    <path
        d="M3.3704 10.6834C3.57645 10.4389 3.92355 10.4389 4.1296 10.6834L7.35643 14.513C7.67091 14.8862 7.43485 15.5 6.97683 15.5L0.523172 15.5C0.065156 15.5 -0.170911 14.8862 0.143573 14.5129L3.3704 10.6834Z"
        fill="#4A4949"
    />
    <path
        d="M22.6436 11.4871C22.3291 11.1139 22.5652 10.5 23.0232 10.5H25.2759C25.1371 9.92975 24.9512 9.37226 24.7202 8.83335C24.3277 7.91761 23.805 7.05553 23.1624 6.27554C21.6119 4.39348 19.4586 3.10506 17.0672 2.62841C14.6757 2.15177 12.193 2.5162 10.0394 3.65999C8.17014 4.65279 6.64849 6.17981 5.66183 8.03591C5.4124 8.50514 4.85225 8.73811 4.3623 8.53234C3.87235 8.32657 3.63869 7.76045 3.88152 7.28777C5.04458 5.02386 6.87546 3.16143 9.13677 1.96043C11.6822 0.608503 14.6167 0.177763 17.4433 0.741139C20.2699 1.30451 22.815 2.82739 24.6477 5.05192C25.5823 6.18635 26.3023 7.46771 26.7851 8.83335C26.9773 9.37687 27.1319 9.93375 27.2475 10.5H29.4768C29.9348 10.5 30.1709 11.1139 29.8564 11.4871L26.6296 15.3166C26.4236 15.5612 26.0764 15.5612 25.8704 15.3166L22.6436 11.4871ZM6.97683 15.5C7.43485 15.5 7.67091 14.8862 7.35643 14.513L4.1296 10.6834C3.92355 10.4389 3.57645 10.4389 3.3704 10.6834L0.143573 14.5129C-0.170911 14.8862 0.065156 15.5 0.523172 15.5H2.75253C2.86812 16.0663 3.02271 16.6231 3.21489 17.1667C3.69466 18.5237 4.40868 19.7976 5.33495 20.927C7.16807 23.162 9.71915 24.6927 12.5539 25.2583C15.3886 25.824 18.3318 25.3897 20.8824 24.0294C23.149 22.8205 24.9811 20.9467 26.1395 18.6711C26.3806 18.1976 26.1449 17.6323 25.6541 17.4283C25.1634 17.2244 24.6041 17.4594 24.3565 17.9296C23.3734 19.7955 21.8506 21.332 19.9768 22.3314C17.8189 23.4823 15.3288 23.8497 12.9305 23.3712C10.5321 22.8926 8.37381 21.5976 6.8229 19.7066C6.18697 18.9312 5.66928 18.0753 5.27979 17.1667C5.04878 16.6277 4.86286 16.0703 4.72412 15.5H6.97683Z"
        fill="#4A4949"
    />
    <path
        d="M9.8547 10.769L14.8177 6.13685C15.2019 5.77826 15.7981 5.77826 16.1823 6.13685L21.1453 10.769C21.8088 11.3883 21.3706 12.5 20.463 12.5H20V17.5C20 18.0523 19.5523 18.5 19 18.5H12C11.4477 18.5 11 18.0523 11 17.5V12.5H10.537C9.6294 12.5 9.19118 11.3883 9.8547 10.769Z"
        fill="#4A4949"
    />
</svg>
